<mxfile host="Electron" agent="Mozilla/5.0 (Windows NT 10.0; Win64; x64) AppleWebKit/537.36 (KHTML, like Gecko) draw.io/26.1.1 Chrome/132.0.6834.210 Electron/34.3.3 Safari/537.36" version="26.1.1">
  <diagram id="C5RBs43oDa-KdzZeNtuy" name="Page-1">
    <mxGraphModel dx="3830" dy="850" grid="1" gridSize="10" guides="1" tooltips="1" connect="1" arrows="1" fold="1" page="0" pageScale="1" pageWidth="1169" pageHeight="827" math="0" shadow="0" adaptiveColors="auto">
      <root>
        <mxCell id="WIyWlLk6GJQsqaUBKTNV-0" />
        <mxCell id="WIyWlLk6GJQsqaUBKTNV-1" parent="WIyWlLk6GJQsqaUBKTNV-0" />
        <mxCell id="WsvTTvJnV94lKywXFIQ6-25" value="MetaIS" style="html=1;outlineConnect=0;whiteSpace=wrap;shape=mxgraph.archimate3.application;appType=grouping;archiType=square;dashed=1;fillColor=#D2D7D7;strokeColor=#000000;align=left;verticalAlign=top;" parent="WIyWlLk6GJQsqaUBKTNV-1" vertex="1">
          <mxGeometry x="-2060" y="720" width="540" height="320" as="geometry" />
        </mxCell>
        <mxCell id="WsvTTvJnV94lKywXFIQ6-11" value="95/2019" style="html=1;outlineConnect=0;whiteSpace=wrap;shape=mxgraph.archimate3.application;appType=grouping;archiType=square;dashed=1;fillColor=#D2D7D7;strokeColor=#000000;align=left;verticalAlign=top;" parent="WIyWlLk6GJQsqaUBKTNV-1" vertex="1">
          <mxGeometry x="-2280" y="210" width="760" height="470" as="geometry" />
        </mxCell>
        <mxCell id="fSfS56mvh5IIjUqDp6pZ-38" value="Orgán riadenia" style="html=1;outlineConnect=0;whiteSpace=wrap;fillColor=#FFF323;shape=mxgraph.archimate3.application;appType=role;archiType=square;strokeColor=#000000;" parent="WIyWlLk6GJQsqaUBKTNV-1" vertex="1">
          <mxGeometry x="-1960" y="740" width="160" height="80" as="geometry" />
        </mxCell>
        <mxCell id="fSfS56mvh5IIjUqDp6pZ-39" value="Spracovatelia KRIT" style="html=1;outlineConnect=0;whiteSpace=wrap;fillColor=#FFF323;shape=mxgraph.archimate3.application;appType=role;archiType=square;strokeColor=#000000;" parent="WIyWlLk6GJQsqaUBKTNV-1" vertex="1">
          <mxGeometry x="-1800" y="850" width="160" height="50" as="geometry" />
        </mxCell>
        <mxCell id="fSfS56mvh5IIjUqDp6pZ-40" value="" style="endArrow=block;html=1;endFill=0;edgeStyle=elbowEdgeStyle;elbow=vertical;rounded=0;fontFamily=Helvetica;fontSize=12;fontColor=default;exitX=0;exitY=0.5;exitDx=0;exitDy=0;exitPerimeter=0;entryX=0.5;entryY=1;entryDx=0;entryDy=0;entryPerimeter=0;" parent="WIyWlLk6GJQsqaUBKTNV-1" source="fSfS56mvh5IIjUqDp6pZ-39" target="fSfS56mvh5IIjUqDp6pZ-38" edge="1">
          <mxGeometry width="160" relative="1" as="geometry">
            <mxPoint x="-1440" y="570" as="sourcePoint" />
            <mxPoint x="-1280" y="570" as="targetPoint" />
            <Array as="points">
              <mxPoint x="-1840" y="888" />
            </Array>
          </mxGeometry>
        </mxCell>
        <mxCell id="fSfS56mvh5IIjUqDp6pZ-41" value="Podriadené osoby" style="html=1;outlineConnect=0;whiteSpace=wrap;fillColor=#FFF323;shape=mxgraph.archimate3.application;appType=role;archiType=square;strokeColor=#000000;" parent="WIyWlLk6GJQsqaUBKTNV-1" vertex="1">
          <mxGeometry x="-1800" y="910" width="160" height="50" as="geometry" />
        </mxCell>
        <mxCell id="fSfS56mvh5IIjUqDp6pZ-42" value="" style="endArrow=block;html=1;endFill=0;edgeStyle=elbowEdgeStyle;elbow=vertical;rounded=0;fontFamily=Helvetica;fontSize=12;fontColor=default;exitX=0;exitY=0.5;exitDx=0;exitDy=0;exitPerimeter=0;entryX=0.5;entryY=1;entryDx=0;entryDy=0;entryPerimeter=0;" parent="WIyWlLk6GJQsqaUBKTNV-1" source="fSfS56mvh5IIjUqDp6pZ-41" target="fSfS56mvh5IIjUqDp6pZ-38" edge="1">
          <mxGeometry width="160" relative="1" as="geometry">
            <mxPoint x="-1790" y="898" as="sourcePoint" />
            <mxPoint x="-1870" y="830" as="targetPoint" />
            <Array as="points">
              <mxPoint x="-1840" y="935" />
            </Array>
          </mxGeometry>
        </mxCell>
        <mxCell id="fSfS56mvh5IIjUqDp6pZ-43" value="Prevádzkovatelia IS" style="html=1;outlineConnect=0;whiteSpace=wrap;fillColor=#FFF323;shape=mxgraph.archimate3.application;appType=role;archiType=square;strokeColor=#000000;" parent="WIyWlLk6GJQsqaUBKTNV-1" vertex="1">
          <mxGeometry x="-1800" y="970" width="160" height="50" as="geometry" />
        </mxCell>
        <mxCell id="fSfS56mvh5IIjUqDp6pZ-44" value="" style="endArrow=block;html=1;endFill=0;edgeStyle=elbowEdgeStyle;elbow=vertical;rounded=0;fontFamily=Helvetica;fontSize=12;fontColor=default;entryX=0.5;entryY=1;entryDx=0;entryDy=0;entryPerimeter=0;exitX=0;exitY=0.5;exitDx=0;exitDy=0;exitPerimeter=0;" parent="WIyWlLk6GJQsqaUBKTNV-1" source="fSfS56mvh5IIjUqDp6pZ-43" target="fSfS56mvh5IIjUqDp6pZ-38" edge="1">
          <mxGeometry width="160" relative="1" as="geometry">
            <mxPoint x="-1440" y="570" as="sourcePoint" />
            <mxPoint x="-1280" y="570" as="targetPoint" />
            <Array as="points">
              <mxPoint x="-1820" y="995" />
            </Array>
          </mxGeometry>
        </mxCell>
        <mxCell id="fSfS56mvh5IIjUqDp6pZ-47" value="&lt;div&gt;&lt;font&gt;Povinná osoba&lt;/font&gt;&lt;/div&gt;&lt;div&gt;&lt;br&gt;&lt;/div&gt;&lt;div style=&quot;text-align: left;&quot;&gt;&lt;span style=&quot;background-color: transparent; color: light-dark(rgb(0, 0, 0), rgb(255, 255, 255));&quot;&gt;&lt;font style=&quot;font-size: 11px;&quot;&gt;je to skôr definovanie vzťahu, že niekto je povinný niečo vykonávať. Napr. podľa §4 (1)&amp;nbsp; 305/2013 OVM zabezpečuje vytvorenie prístupových miest, spol. modulov a AIS.&lt;/font&gt;&lt;/span&gt;&lt;/div&gt;&lt;div style=&quot;text-align: left;&quot;&gt;&lt;font style=&quot;color: light-dark(rgb(0, 0, 0), rgb(255, 255, 255)); background-color: transparent; font-size: 11px;&quot;&gt;Alebo §2 211/2000&lt;/font&gt; :&amp;nbsp;&lt;span style=&quot;&quot;&gt;&lt;font style=&quot;font-size: 11px;&quot;&gt;Osobami povinnými podľa tohto zákona sprístupňovať informácie (ďalej len „povinné osoby“) sú štátne orgány, obce, ...&lt;/font&gt;&lt;/span&gt;&lt;/div&gt;" style="html=1;outlineConnect=0;whiteSpace=wrap;fillColor=#FFF323;shape=mxgraph.archimate3.application;appType=role;archiType=square;strokeColor=#000000;align=center;verticalAlign=middle;fontFamily=Helvetica;fontSize=12;spacing=6;" parent="WIyWlLk6GJQsqaUBKTNV-1" vertex="1">
          <mxGeometry x="-2280" y="720" width="200" height="200" as="geometry" />
        </mxCell>
        <mxCell id="fSfS56mvh5IIjUqDp6pZ-52" value="&lt;div style=&quot;&quot;&gt;&lt;span style=&quot;background-color: transparent; color: light-dark(rgb(0, 0, 0), rgb(255, 255, 255));&quot;&gt;95/2019 §2 (5)&amp;nbsp;&lt;/span&gt;&lt;span style=&quot;background-color: transparent; color: light-dark(rgb(0, 0, 0), rgb(255, 255, 255));&quot;&gt;&lt;b&gt;Správcom &lt;/b&gt;&lt;/span&gt;&lt;span style=&quot;background-color: transparent; color: light-dark(rgb(0, 0, 0), rgb(255, 255, 255));&quot;&gt;na účely tohto zákona je ten orgán riadenia, ktorého za správcu informačnej technológie verejnej správy ustanoví zákon alebo je ustanovený na základe tohto zákona&lt;/span&gt;&lt;/div&gt;&lt;div style=&quot;&quot;&gt;§11 (2)&amp;nbsp;&lt;span style=&quot;text-align: justify;&quot;&gt;&lt;b&gt;Za vytváranie, správu a rozvoj informačnej technológie verejnej správy zodpovedá správca&lt;/b&gt;.&lt;/span&gt;&lt;/div&gt;" style="html=1;outlineConnect=0;whiteSpace=wrap;fillColor=#FFF323;shape=mxgraph.archimate3.application;appType=role;archiType=square;strokeColor=#000000;align=left;verticalAlign=bottom;fontFamily=Helvetica;fontSize=12;" parent="WIyWlLk6GJQsqaUBKTNV-1" vertex="1">
          <mxGeometry x="-2060" y="500" width="240" height="140" as="geometry" />
        </mxCell>
        <mxCell id="WsvTTvJnV94lKywXFIQ6-1" value="&lt;span style=&quot;text-align: justify;&quot;&gt;Ministerstvo investícií&lt;/span&gt;" style="html=1;outlineConnect=0;whiteSpace=wrap;fillColor=#FFF323;shape=mxgraph.archimate3.application;appType=actor;archiType=square;strokeColor=#000000;" parent="WIyWlLk6GJQsqaUBKTNV-1" vertex="1">
          <mxGeometry x="-2260" y="240" width="160" height="80" as="geometry" />
        </mxCell>
        <mxCell id="WsvTTvJnV94lKywXFIQ6-2" value="Orgán vedenia" style="html=1;outlineConnect=0;whiteSpace=wrap;fillColor=#FFF323;shape=mxgraph.archimate3.application;appType=role;archiType=square;strokeColor=#000000;align=center;verticalAlign=middle;fontFamily=Helvetica;fontSize=12;" parent="WIyWlLk6GJQsqaUBKTNV-1" vertex="1">
          <mxGeometry x="-2260" y="360" width="160" height="100" as="geometry" />
        </mxCell>
        <mxCell id="WsvTTvJnV94lKywXFIQ6-3" value="&lt;div style=&quot;text-align: center;&quot;&gt;&lt;b style=&quot;background-color: transparent; color: light-dark(rgb(0, 0, 0), rgb(255, 255, 255));&quot;&gt;Orgán riadenia &lt;/b&gt;&lt;span style=&quot;background-color: transparent; color: light-dark(rgb(0, 0, 0), rgb(255, 255, 255));&quot;&gt;§5&lt;/span&gt;&lt;/div&gt;&lt;div&gt;&lt;div style=&quot;&quot;&gt;je povinný&amp;nbsp;&lt;span style=&quot;background-color: transparent; color: light-dark(rgb(0, 0, 0), rgb(255, 255, 255));&quot;&gt;zabezpečovať plynulú, bezpečnú a spoľahlivú prevádzku informačných technológií verejnej správy, ktorých je správcom §12 (1)&lt;/span&gt;&lt;/div&gt;&lt;/div&gt;" style="html=1;outlineConnect=0;whiteSpace=wrap;fillColor=#FFC800;shape=mxgraph.archimate3.application;appType=role;archiType=square;strokeColor=#000000;align=left;verticalAlign=middle;fontFamily=Helvetica;fontSize=12;" parent="WIyWlLk6GJQsqaUBKTNV-1" vertex="1">
          <mxGeometry x="-2060" y="360" width="240" height="100" as="geometry" />
        </mxCell>
        <mxCell id="WsvTTvJnV94lKywXFIQ6-4" value="" style="endArrow=block;html=1;endFill=1;startArrow=oval;startFill=1;edgeStyle=elbowEdgeStyle;elbow=vertical;rounded=0;" parent="WIyWlLk6GJQsqaUBKTNV-1" source="WsvTTvJnV94lKywXFIQ6-1" target="WsvTTvJnV94lKywXFIQ6-2" edge="1">
          <mxGeometry width="160" relative="1" as="geometry">
            <mxPoint x="-2670" y="510" as="sourcePoint" />
            <mxPoint x="-2510" y="510" as="targetPoint" />
          </mxGeometry>
        </mxCell>
        <mxCell id="WsvTTvJnV94lKywXFIQ6-5" value="&lt;span style=&quot;text-align: justify;&quot;&gt;Ministerstvo, GP, NKÚ, ÚDZS, ... NR SR, ... regulované profesie a komory, ...&lt;/span&gt;" style="html=1;outlineConnect=0;whiteSpace=wrap;fillColor=#FFF323;shape=mxgraph.archimate3.application;appType=actor;archiType=square;strokeColor=#000000;" parent="WIyWlLk6GJQsqaUBKTNV-1" vertex="1">
          <mxGeometry x="-2060" y="240" width="240" height="80" as="geometry" />
        </mxCell>
        <mxCell id="WsvTTvJnV94lKywXFIQ6-6" value="" style="endArrow=block;html=1;endFill=1;startArrow=oval;startFill=1;edgeStyle=elbowEdgeStyle;elbow=vertical;rounded=0;" parent="WIyWlLk6GJQsqaUBKTNV-1" source="WsvTTvJnV94lKywXFIQ6-5" target="WsvTTvJnV94lKywXFIQ6-3" edge="1">
          <mxGeometry width="160" relative="1" as="geometry">
            <mxPoint x="-2710" y="510" as="sourcePoint" />
            <mxPoint x="-2550" y="510" as="targetPoint" />
          </mxGeometry>
        </mxCell>
        <mxCell id="WsvTTvJnV94lKywXFIQ6-10" value="&lt;p style=&quot;margin:0in;font-family:Calibri;font-size:11.0pt&quot;&gt;&lt;a style=&quot;font-size: 11pt; background-color: transparent;&quot; href=&quot;https://www.slov-lex.sk/ezbierky/pravne-predpisy/SK/ZZ/2019/95/&quot;&gt;&lt;b&gt;95/2019&lt;/b&gt; Z.z. - Zákon o informačných technológiách vo verejnej správe a o zmene a doplnení niektorých zákonov&lt;/a&gt;&lt;/p&gt;" style="html=1;outlineConnect=0;whiteSpace=wrap;fillColor=#FFF323;shape=mxgraph.archimate3.application;appType=contract;archiType=square;strokeColor=#000000;" parent="WIyWlLk6GJQsqaUBKTNV-1" vertex="1">
          <mxGeometry x="-2095" y="70" width="390" height="100" as="geometry" />
        </mxCell>
        <mxCell id="WsvTTvJnV94lKywXFIQ6-12" value="" style="edgeStyle=elbowEdgeStyle;html=1;endArrow=openAsync;elbow=vertical;rounded=0;endFill=0;exitX=0.5;exitY=1;exitDx=0;exitDy=0;exitPerimeter=0;" parent="WIyWlLk6GJQsqaUBKTNV-1" source="WsvTTvJnV94lKywXFIQ6-10" target="WsvTTvJnV94lKywXFIQ6-11" edge="1">
          <mxGeometry width="160" relative="1" as="geometry">
            <mxPoint x="-2520" y="510" as="sourcePoint" />
            <mxPoint x="-2360" y="510" as="targetPoint" />
          </mxGeometry>
        </mxCell>
        <mxCell id="WsvTTvJnV94lKywXFIQ6-13" value="&lt;div style=&quot;text-align: center;&quot;&gt;&lt;span style=&quot;background-color: transparent; color: light-dark(rgb(0, 0, 0), rgb(255, 255, 255));&quot;&gt;95/2019&amp;nbsp;&lt;/span&gt;&lt;/div&gt;&lt;div&gt;&lt;br&gt;&lt;div&gt;§12 (1)&amp;nbsp;&lt;span style=&quot;&quot;&gt;Orgán riadenia je povinný&amp;nbsp;&lt;/span&gt;&lt;/div&gt;&lt;div&gt;&lt;span style=&quot;&quot;&gt;f)&amp;nbsp;&lt;/span&gt;&lt;span style=&quot;background-color: transparent; color: light-dark(rgb(0, 0, 0), rgb(255, 255, 255));&quot;&gt;zabezpečiť, aby informácia, dokument alebo údaj, ktoré je osoba povinná predkladať v konaní pred orgánom verejnej moci a ktoré sa nachádzajú v informačnom systéme verejnej správy, ktorého je správcom, boli dostupné aj iným orgánom verejnej moci a spôsobom podľa osobitného predpisu&lt;/span&gt;&lt;a style=&quot;background-color: transparent; box-sizing: border-box; -webkit-font-smoothing: antialiased; display: inline;&quot; href=&quot;https://www.slov-lex.sk/ezbierky-fe/pravne-predpisy/SK/ZZ/2019/95/#poznamky.poznamka-14&quot; title=&quot;Odkaz na predpis alebo ustanovenie&quot; class=&quot;citacnyOdkazJednoduchy&quot;&gt;&lt;span style=&quot;box-sizing: border-box;&quot;&gt;14&lt;/span&gt;)&lt;/a&gt;&lt;span style=&quot;background-color: transparent; color: light-dark(rgb(0, 0, 0), rgb(255, 255, 255));&quot;&gt;&amp;nbsp;im ich bezodplatne sprístupňovať alebo na požiadanie poskytnúť,&lt;/span&gt;&lt;/div&gt;&lt;/div&gt;" style="html=1;outlineConnect=0;whiteSpace=wrap;fillColor=#CCCCFF;shape=mxgraph.archimate3.application;appType=requirement;archiType=oct;align=left;" parent="WIyWlLk6GJQsqaUBKTNV-1" vertex="1">
          <mxGeometry x="-1680" y="20" width="320" height="160" as="geometry" />
        </mxCell>
        <mxCell id="WsvTTvJnV94lKywXFIQ6-18" value="&lt;div style=&quot;&quot;&gt;95/2019 §2 (6)&amp;nbsp;&lt;span style=&quot;text-align: justify;&quot;&gt;&lt;b&gt;Prevádzkovateľom &lt;/b&gt;je na účely tohto zákona správca, osobitným predpisom ustanovený orgán riadenia alebo správcom určená osoba.&lt;/span&gt;&lt;/div&gt;&lt;div style=&quot;&quot;&gt;&lt;span style=&quot;text-align: justify;&quot;&gt;vykonáva činnosti v rozsahu ktoré mu určí správca.&lt;/span&gt;&lt;span style=&quot;text-align: justify;&quot;&gt;&lt;/span&gt;&lt;/div&gt;&lt;div style=&quot;&quot;&gt;&lt;span style=&quot;text-align: justify;&quot;&gt;Určením alebo ustanovením prevádzkovateľa nie je dotknutá zodpovednosť správcu za plnenie povinností&lt;/span&gt;&lt;span style=&quot;text-align: justify;&quot;&gt;&lt;/span&gt;&lt;/div&gt;" style="html=1;outlineConnect=0;whiteSpace=wrap;fillColor=#FFF323;shape=mxgraph.archimate3.application;appType=role;archiType=square;strokeColor=#000000;align=left;verticalAlign=bottom;fontFamily=Helvetica;fontSize=12;" parent="WIyWlLk6GJQsqaUBKTNV-1" vertex="1">
          <mxGeometry x="-1780" y="500" width="240" height="140" as="geometry" />
        </mxCell>
        <mxCell id="WsvTTvJnV94lKywXFIQ6-21" value="" style="endArrow=block;html=1;endFill=0;edgeStyle=elbowEdgeStyle;elbow=vertical;rounded=0;exitX=0.5;exitY=0;exitDx=0;exitDy=0;exitPerimeter=0;" parent="WIyWlLk6GJQsqaUBKTNV-1" source="fSfS56mvh5IIjUqDp6pZ-52" target="WsvTTvJnV94lKywXFIQ6-3" edge="1">
          <mxGeometry width="160" relative="1" as="geometry">
            <mxPoint x="-2710" y="520" as="sourcePoint" />
            <mxPoint x="-2550" y="520" as="targetPoint" />
          </mxGeometry>
        </mxCell>
        <mxCell id="WsvTTvJnV94lKywXFIQ6-22" value="" style="edgeStyle=elbowEdgeStyle;html=1;endArrow=openAsync;elbow=vertical;rounded=0;endFill=0;" parent="WIyWlLk6GJQsqaUBKTNV-1" source="fSfS56mvh5IIjUqDp6pZ-52" target="WsvTTvJnV94lKywXFIQ6-18" edge="1">
          <mxGeometry width="160" relative="1" as="geometry">
            <mxPoint x="-1940" y="640" as="sourcePoint" />
            <mxPoint x="-1940" y="800" as="targetPoint" />
          </mxGeometry>
        </mxCell>
        <mxCell id="WsvTTvJnV94lKywXFIQ6-23" value="&lt;span style=&quot;text-align: justify;&quot;&gt;95/2019 §13 (1) &lt;b&gt;Koncepcia rozvoja &lt;/b&gt;je dokument vypracovaný &lt;u&gt;orgánom riadenia&lt;/u&gt; pre informačné technológie verejnej správy, ktorých je správcom, definujúci ciele, ...&lt;/span&gt;" style="html=1;outlineConnect=0;whiteSpace=wrap;fillColor=#FFF323;shape=mxgraph.archimate3.application;appType=passive;archiType=square;strokeColor=#000000;" parent="WIyWlLk6GJQsqaUBKTNV-1" vertex="1">
          <mxGeometry x="-1780" y="350" width="200" height="120" as="geometry" />
        </mxCell>
        <mxCell id="WsvTTvJnV94lKywXFIQ6-24" value="" style="edgeStyle=elbowEdgeStyle;html=1;endArrow=open;elbow=vertical;endFill=0;dashed=1;dashPattern=1 4;rounded=0;entryX=0;entryY=0.5;entryDx=0;entryDy=0;entryPerimeter=0;exitX=1;exitY=0.5;exitDx=0;exitDy=0;exitPerimeter=0;" parent="WIyWlLk6GJQsqaUBKTNV-1" source="WsvTTvJnV94lKywXFIQ6-3" target="WsvTTvJnV94lKywXFIQ6-23" edge="1">
          <mxGeometry width="160" relative="1" as="geometry">
            <mxPoint x="-2550" y="520" as="sourcePoint" />
            <mxPoint x="-2390" y="520" as="targetPoint" />
          </mxGeometry>
        </mxCell>
      </root>
    </mxGraphModel>
  </diagram>
</mxfile>
